<svg xmlns="http://www.w3.org/2000/svg" width="16.842" height="16" viewBox="0 0 16.842 16">
  <g id="download" transform="translate(-2 -2)">
    <path id="Path_23646" data-name="Path 23646" d="M18,19H2.842a.842.842,0,1,0,0,1.684H18A.842.842,0,1,0,18,19Z" transform="translate(0 -2.684)" fill="#9c9c9c"/>
    <path id="Path_23647" data-name="Path 23647" d="M11.052,2a.842.842,0,0,0-.842.842V11.76L7.439,8.981a.846.846,0,1,0-1.2,1.2l4.211,4.211a.842.842,0,0,0,1.2,0l4.211-4.211a.846.846,0,0,0-1.2-1.2L11.894,11.76V2.842A.842.842,0,0,0,11.052,2Z" transform="translate(-0.631)" fill="#9c9c9c"/>
  </g>
</svg>
